<?xml version="1.0" encoding="utf-8"?>
<!-- Generator: Adobe Illustrator 27.2.0, SVG Export Plug-In . SVG Version: 6.00 Build 0)  -->
<svg version="1.1" id="a8fb2eaf-2a53-49df-969a-202e504b9a03"
	 xmlns="http://www.w3.org/2000/svg" xmlns:xlink="http://www.w3.org/1999/xlink" x="0px" y="0px" viewBox="0 0 744.2 551.7"
	 style="enable-background:new 0 0 744.2 551.7;" xml:space="preserve">
<style type="text/css">
	.st0{fill:#E5E5E5;}
	.st1{fill:#FFFFFF;}
	.st2{fill:#E6E6E6;}
	.st3{fill:#9F616A;}
	.st4{fill:#2F2E41;}
	.st5{fill:#3F3D56;}
	.st6{fill:#040B6C;}
	.st7{fill:#F1F1F1;}
	.st8{fill:#CBCBCB;}
</style>
<polygon class="st0" points="356.1,197.4 94,197.4 45.2,251.7 45.2,197.4 0,197.4 0,0 356.1,0 "/>
<rect x="58.4" y="58" class="st1" width="239.3" height="10.7"/>
<rect x="58.4" y="93.3" class="st1" width="239.3" height="10.7"/>
<rect x="58.4" y="128.7" class="st1" width="239.3" height="10.7"/>
<circle class="st2" cx="46" cy="275.9" r="9"/>
<polygon class="st3" points="628.6,540.3 618.5,540.3 613.7,501.4 628.6,501.4 "/>
<path class="st4" d="M631.2,550l-32.5,0v-0.4c0-7,5.7-12.7,12.7-12.7h0l19.9,0L631.2,550z"/>
<polygon class="st3" points="530.3,539.5 520.8,536.3 528.6,497.9 542.7,502.6 "/>
<path class="st4" d="M529.6,549.5l-30.8-10.3l0.1-0.4c2.2-6.6,9.4-10.2,16-8l0,0l18.8,6.3L529.6,549.5z"/>
<path class="st4" d="M542.7,339.2L520.9,524l21.4,1.8c0,0,33.7-181.6,44.1-160.1s23.1,156.1,23.1,156.1h21.3c0,0,5.5-210-16.8-220.3
	L542.7,339.2z"/>
<circle class="st3" cx="578.2" cy="183.3" r="21.5"/>
<path class="st5" d="M565.4,212.8l27.4,2.2c0,0,21.9,0.4,30.8,6.3c8.9,5.9-8.5,42.7-8.5,42.7s-4.5,14.6-1.1,21.1
	c11.1,21.4,9.5,37.8,9.5,37.8s-22.8,5.2-62.1,15.6c0,0-24.5,9.6-23.7,4.5c0.7-5.2,8.2-64.5,8.2-64.5v-61.6L565.4,212.8z"/>
<path class="st4" d="M613.4,181c-1.1-6.1-3.6-14.8-9-21.4c0.2,0,0.3,0,0.5,0c1.9-0.1,4-0.6,4.8-2.4c0.5-1.4,0.2-3-0.8-4.1
	c-1-1.1-2.1-2-3.4-2.7c1.3,0.8,3.2,1.5,4.2,0.4c0.6-0.7,0.7-1.6,0.3-2.4c-0.4-0.8-1-1.5-1.6-2c-2.2-2-4.7-3.7-7.2-5.1
	c-2-1.1-4.7-2-6.5-0.6c-1.8,1.4-1.5,4.3-1.1,6.6c-1-0.6-2.2-1-3.4-1c-1.2,0-2.3,0.8-2.6,2c0,0.9,0.4,1.8,1.2,2.3
	c-7.1-1.2-16.2,0.2-27.7,5.5c0,0-11.2,3.7-11.8,18.5c-0.1,2.4,0.2,4.7,0.8,7c0.6,2.7,2.9,15.8,0.2,21.2l13.5,4.8l0.2-8.1
	c-10.5-15.2-5.3-20.8-1.2-29.9c0,0,0.1-0.1,0.1-0.1c0,0,0,0,0,0c0.8,1.3,3.7,5.7,13.6,5.7l-3.9-3.9c0,0,17,6.9,23.1,6.9
	c0,0,4.6,3.1,0,7.7s-14.8,11.4-9.4,19.9c5.4,8.5,4.9,11.5,4.9,11.5l12.3-6.9c0,0,7.5-14.9,8.9-19.3C613.6,188,613.9,184.5,613.4,181
	z"/>
<polygon class="st6" points="465.1,348.2 710.6,348.2 710.6,484.2 679.4,484.2 679.4,521.7 645.8,484.2 465.1,484.2 "/>
<rect x="505.4" y="388.2" class="st1" width="165" height="7.4"/>
<rect x="505.4" y="412.5" class="st1" width="165" height="7.4"/>
<rect x="505.4" y="436.9" class="st1" width="165" height="7.4"/>
<path class="st3" d="M626.3,261l-14.4,3.5l-0.1,29.1l-16.2,55.9c-3.9,3.1-4.6,8.8-1.5,12.7s8.8,4.6,12.7,1.5c3-2.3,4.2-6.3,3-9.9
	l19.4-57.9L626.3,261z"/>
<path class="st3" d="M530.5,260.4l17.3,4.9l0.1,29.1l16.2,55.9c3.9,3.1,4.6,8.8,1.5,12.7s-8.8,4.6-12.7,1.5c-3-2.3-4.2-6.3-3-9.9
	l-19.4-57.9L530.5,260.4z"/>
<path class="st5" d="M604.7,218.3l3.6-1.2c2-0.7,4.2-0.5,6.1,0.4l0,0c0,0,10.4,0.7,11.9,8.2c1.5,7.4,5.1,72.3,5.1,72.3l-22-7
	L604.7,218.3z"/>
<path class="st5" d="M554.6,218.3l-6.3-0.3l-2-1c0,0-11.7,1.3-13.2,8.7s-5.8,74.3-5.8,74.3l22-6L554.6,218.3z"/>
<path class="st7" d="M191.8,481.2l10.4-9.1c-0.4-6.5-1.3-13-2.4-19.5L194,455l5.3-4.7c-1.5-8-3.1-13.1-3.1-13.1s-21,18.7-32.8,41.5
	l5.2,17l-7.9-11.2c-1.2,2.7-2.2,5.5-3,8.3c-8.2,28.6-5.5,54.5,6,57.8s27.5-17.2,35.8-45.9c2.4-9.2,3.4-18.7,2.9-28.1L191.8,481.2z"
	/>
<path class="st7" d="M219.4,503.4L233,501c3-5.8,5.7-11.8,8-17.9l-6.2-0.9l7-1.2c2.8-7.6,4.2-12.8,4.2-12.8s-27.7,5.1-49.5,18.5
	l-4.4,17.2l-0.9-13.7c-2.4,1.7-4.7,3.6-6.9,5.6c-21.8,20.3-32.9,43.8-24.7,52.6s32.5-0.5,54.3-20.8c6.8-6.6,12.5-14.2,17-22.6
	L219.4,503.4z"/>
<path class="st8" d="M743.2,551h-618c-0.6,0-1-0.4-1-1s0.4-1,1-1h618c0.6,0,1,0.4,1,1S743.8,551,743.2,551z"/>
</svg>
