<?xml version="1.0" encoding="utf-8"?>
<!-- Generator: Adobe Illustrator 27.2.0, SVG Export Plug-In . SVG Version: 6.00 Build 0)  -->
<svg version="1.1" id="e0099732-1b76-45ab-8d98-76d91fa64768"
	 xmlns="http://www.w3.org/2000/svg" xmlns:xlink="http://www.w3.org/1999/xlink" x="0px" y="0px" viewBox="0 0 752 682"
	 style="enable-background:new 0 0 752 682;" xml:space="preserve">
<style type="text/css">
	.st0{fill:#F2F2F2;}
	.st1{fill:#FFFFFF;}
	.st2{fill:#3F3D56;}
	.st3{fill:#FFB6B6;}
	.st4{fill:#2F2E41;}
	.st5{fill:#E4E4E4;}
	.st6{fill:#040B6C;}
	.st7{opacity:0.1;enable-background:new    ;}
</style>
<path class="st0" d="M573.3,271.2c-1.6,1.1-3.1,2.2-4.7,3.3c-15,43.3-22.6,88.9-22.5,134.7c0,5.3,0.1,10.6,0.3,15.9
	c1.7,39.6,9.2,78.7,22.4,116c0.7,2,1.4,3.9,2.1,5.9c0.5,1.4,1,2.8,1.6,4.2c0.6,0.7,1.1,1.4,1.7,2.1c0,0,0.1,0.1,0.1,0.1
	c0.2,0.3,0.4,0.6,0.7,0.8c1,1.2,1.9,2.3,2.9,3.5l-0.8,0.1l-1.9,0.2l0,0c0.6,0,1.3-0.1,1.9-0.2c0.2,0,0.5,0,0.7,0
	c0.2,0,0.4,0,0.7-0.1c27.5-2,55.6-4.7,80.2-17.1c25.7-13,46.8-39.5,44.4-68.2c-0.3-3.8-1.1-7.5-2.2-11.1c-0.5-1.5-1-3-1.6-4.4
	c-11-27.9-42.6-41.6-70.5-30.6c-9.3,3.7-17.4,9.8-23.4,17.8c6.2-29.9,37.8-46.4,66.4-56.9c28.7-10.5,61-21.6,74.6-48.9
	c7.6-15.2,7-32.5,0.9-48.2c-0.2-0.5-0.4-1-0.6-1.4c-7.7-18.4-22-33.3-40.2-41.6c-34-14.9-74.1-7.3-107.5,8.9
	C590.1,260.5,581.5,265.6,573.3,271.2z"/>
<path class="st1" d="M677.3,458.2c-26,3.6-50.2,15.5-69,33.8c-16,15.8-27.4,35.7-33,57.4c-0.3,1.2-0.6,2.5-0.9,3.7
	c-0.7-1.2-1.4-2.5-2.1-3.7c-0.4-0.8-0.9-1.6-1.3-2.4c0.5,1.4,1,2.8,1.6,4.2c0.6,0.7,1.1,1.4,1.7,2.1c0,0,0.1,0.1,0.1,0.1
	c0.2,0.3,0.4,0.6,0.7,0.8c1,1.2,1.9,2.3,2.9,3.5l-0.8,0.1l-1.9,0.2l0,0c0.6,0,1.3-0.1,1.9-0.2c0.2,0,0.5,0,0.7,0
	c0.1-0.4,0.1-0.7,0.2-1.1c11.4-57.9,63.8-98.6,122.8-95.2c-0.5-1.5-1-3-1.6-4.4C691.9,456.8,684.6,457.2,677.3,458.2z"/>
<path class="st1" d="M585.5,352.8c-10.1,8.3-19,18.1-26.3,29c-3.8,5.8-7.1,11.9-9.7,18.4c-1.3,3-2.4,6-3.4,9.1
	c0,5.3,0.1,10.6,0.3,15.9c0.8-4,1.8-8,3-11.9c0.6-2.2,1.3-4.3,2.1-6.4c8.5-23.4,25.1-42.4,44.9-57.2c21.3-15.8,45.5-28,70.2-37.4
	c25.3-9.7,51.7-16.2,78.6-19.4c1.3-0.2,2.2-1.3,2.1-2.6c0-0.5-0.2-1-0.6-1.4c-0.4-0.4-0.9-0.5-1.5-0.4c-3.3,0.4-6.6,0.8-9.9,1.3
	c-27.5,4.1-54.4,11.6-80,22.3C630.5,322.5,606.1,335.5,585.5,352.8z"/>
<circle class="st0" cx="716.2" cy="210.1" r="9.2"/>
<path class="st2" d="M535.3,680H307.4c-28.5,0-51.5-23.1-51.5-51.5V51.5c0-28.5,23.1-51.5,51.5-51.5h227.9
	c28.5,0,51.5,23.1,51.5,51.5v576.9C586.8,656.9,563.8,680,535.3,680z"/>
<path class="st1" d="M532.8,16h-25.4c-4.7,0-8.5,3.8-8.5,8.5c0,9.6-7.8,17.5-17.5,17.5H357.3c-9.6,0-17.5-7.8-17.5-17.5
	c0-4.7-3.8-8.5-8.5-8.5h-22.4c-21.6,0-39.1,17.5-39.1,39.1v572.8c0,21.6,17.5,39.1,39.1,39.1h223.8c21.6,0,39.1-17.5,39.1-39.1V55.1
	C571.8,33.5,554.3,16,532.8,16z"/>
<path class="st1" d="M450.6,27.5h-70c-1.4,0-2.5-1.1-2.5-2.5s1.1-2.5,2.5-2.5h70c1.4,0,2.5,1.1,2.5,2.5S452,27.5,450.6,27.5z"/>
<circle class="st1" cx="461.6" cy="25" r="2"/>
<path class="st2" d="M588.8,227.5c-2.5,0-4.5-2-4.5-4.5v-88c0-2.5,2-4.5,4.5-4.5s4.5,2,4.5,4.5v88
	C593.3,225.5,591.3,227.5,588.8,227.5z"/>
<path class="st2" d="M255.8,162.5c-2.5,0-4.5-2-4.5-4.5v-20c0-2.5,2-4.5,4.5-4.5c2.5,0,4.5,2,4.5,4.5l0,0v20
	C260.3,160.5,258.3,162.5,255.8,162.5z"/>
<path class="st2" d="M255.8,199.5c-2.5,0-4.5-2-4.5-4.5v-20c0-2.5,2-4.5,4.5-4.5c2.5,0,4.5,2,4.5,4.5v20
	C260.3,197.5,258.3,199.5,255.8,199.5z"/>
<path class="st2" d="M668,682H1c-0.6,0-1-0.4-1-1s0.4-1,1-1h667c0.6,0,1,0.4,1,1S668.6,682,668,682z"/>
<polygon class="st3" points="62.6,669.9 74.9,669.9 80.7,622.6 62.6,622.6 "/>
<path class="st4" d="M59.5,665.9l24.1,0h0c8.5,0,15.4,6.9,15.4,15.4v0.5l-39.5,0L59.5,665.9z"/>
<polygon class="st3" points="175.6,669.9 187.9,669.9 193.7,622.6 175.6,622.6 "/>
<path class="st4" d="M172.5,665.9l24.1,0h0c8.5,0,15.4,6.9,15.4,15.4v0.5l-39.5,0L172.5,665.9z"/>
<polygon class="st3" points="160.8,290 168.8,341 92.8,342 102.8,293 "/>
<path class="st4" d="M171.8,328l19,65l3,267.1h-20.5l-49-214.6l-45,209h-20l14-235c0,0-7-58,17-75v-14.9L171.8,328z"/>
<path class="st3" d="M62.8,378.8c8-2.2,12.7-10.4,10.5-18.4c-0.2-0.9-0.5-1.7-0.9-2.5l32.3-105.4L81,247.8L51.4,351.1
	c-7.3,4.1-9.9,13.2-5.8,20.5C49,377.7,56.1,380.7,62.8,378.8z"/>
<circle class="st3" cx="128.8" cy="160.6" r="34.3"/>
<path class="st5" d="M104.2,317.5c-2.8-0.5-4.8-2.9-5-5.7c-0.8-10.3-4.5-28.3-11.1-53.4c-5.8-22.2,7.4-44.9,29.6-50.8
	c1.5-0.4,3.1-0.7,4.7-0.9l0,0c22.7-3.3,43.8,12.5,47.1,35.2c0.1,0.4,0.1,0.8,0.2,1.2c3.3,28.8-2.9,57.7-5.7,68.8
	c-0.7,2.7-3.1,4.7-6,4.7l-52.4,1C105.1,317.6,104.7,317.6,104.2,317.5z"/>
<path class="st3" d="M251.8,225.6c-0.3,0.7-0.6,1.4-0.8,2.2L185.5,250L172.8,239l-19.2,16.9l20.5,21.8c3.4,3.6,8.8,4.5,13.2,2.3
	l70.2-35.8c6.9,4.2,15.9,2.1,20.2-4.8c4.2-6.9,2.1-15.9-4.8-20.2c-6.9-4.2-15.9-2.1-20.2,4.8C252.4,224.5,252.1,225,251.8,225.6
	L251.8,225.6z"/>
<path class="st5" d="M183.2,251.3l-23.9,20.9c-2.6,2.3-6.6,2-8.9-0.6c-0.2-0.2-0.4-0.5-0.6-0.7l-17.1-26.6
	c-6.3-7.3-5.5-18.3,1.8-24.6c7.3-6.3,18.2-5.5,24.6,1.7l24,20.5c2.6,2.3,3,6.2,0.7,8.9C183.6,250.8,183.4,251.1,183.2,251.3
	L183.2,251.3z"/>
<path class="st5" d="M101,279.5l-29.5-11.6c-3.2-1.3-4.8-4.9-3.6-8.1c0.1-0.3,0.2-0.6,0.4-0.8L84,231.4c3.6-9,13.7-13.3,22.7-9.7
	c8.9,3.6,13.3,13.7,9.8,22.6l-7.1,30.7c-0.8,3.4-4.2,5.5-7.5,4.7C101.6,279.7,101.3,279.6,101,279.5L101,279.5z"/>
<path class="st4" d="M144.6,152.9c7.5,7.6,17.6,16,27.7,11.4c6.6-3,10-10.3,8.9-17.5c-1.8-12.9-12.4-20.6-22.7-26.8
	c-13.4-8.2-28.3-15.5-43.9-14.7s-31.7,12.7-32,28.4c-0.3,12.6,9.2,25,5.2,37c-4.1,12-19.3,15.8-32,15.5s-26.6-2.2-37.1,4.8
	c-13.5,9-14.6,29.6-6.4,43.6s23.1,22.5,37.9,29.2c19.5,8.9,41.2,15.8,62.2,11.7s40.5-22.8,38.9-44.2c-0.7-9-4.9-17.4-8.9-25.5
	s-8.1-16.6-8.4-25.6c-0.3-7.5,2.6-15.7,8.5-20.1c2.2-1.6,3.1-4.4,2.2-6.9L144.6,152.9z"/>
<path class="st1" d="M564.2,299.9c-10.8,6.5-30.1,14.6-49.8,6.3l-12.7-5.4l25.5-28.6c-45.2-49.8-41.4-126.9,8.4-172.1
	s126.9-41.4,172.1,8.4c45.2,49.8,41.4,126.9-8.4,172.1C662.4,314,608.9,321.6,564.2,299.9z"/>
<path class="st6" d="M564.2,301.4c-10.4,6.1-30.2,14.5-50.4,6l-14.5-6.1l26-29.1c-45.2-50.9-40.6-128.7,10.2-173.9
	c50.9-45.2,128.7-40.6,173.9,10.2c44.9,50.5,40.7,127.7-9.3,173.1l0,0C663.2,315.3,609.3,323.2,564.2,301.4L564.2,301.4z
	 M706.7,109.3C662,60,585.8,56.3,536.5,101c-49.3,44.7-53,120.9-8.3,170.2c0,0,0,0,0,0l0.8,0.9l-25.1,28.1l11,4.7
	c19.5,8.3,38.8-0.3,48.6-6.2l0.6-0.4l0.7,0.3c59.9,29.1,131.9,4.1,161-55.7C747.3,198.7,739.7,145.8,706.7,109.3L706.7,109.3z"/>
<path class="st7" d="M720.3,189.5c0-58.1-44.4-106.6-102.2-111.7c3.3-0.3,6.6-0.4,9.9-0.4c61.9,0,112.1,50.2,112.1,112.2
	c0,61.9-50.2,112.1-112.1,112.1c-3.3,0-6.6-0.2-9.9-0.4C675.9,296.1,720.3,247.6,720.3,189.5z"/>
<rect x="553.1" y="167.2" class="st6" width="80.1" height="7.4"/>
<rect x="553.1" y="192.9" class="st6" width="139.7" height="7.4"/>
<rect x="553.1" y="218.6" class="st6" width="139.5" height="7.4"/>
<path class="st1" d="M311.7,489.5c-31.8-28.8-34.2-78-5.4-109.8c28.8-31.8,78-34.2,109.8-5.4c31.8,28.8,34.2,78,5.4,109.8l0,0
	l16.3,18.2l-8.1,3.4c-12.6,5.3-24.9,0.1-31.8-4C369.3,515.7,335.2,510.8,311.7,489.5z"/>
<path class="st6" d="M363.8,510.6c-19.5,0-38.3-7.3-52.7-20.4l0,0c-32.2-29.2-34.6-78.9-5.4-111c29.2-32.2,78.9-34.6,111-5.4
	c31.9,29,34.6,78.2,5.9,110.4l16.6,18.6l-9.2,3.9c-12.9,5.5-25.5,0.1-32.1-3.8C387.2,507.9,375.6,510.6,363.8,510.6z M312.3,488.9
	c23.2,21.2,57,26,85.2,12.2l0.4-0.2l0.4,0.2c6.2,3.7,18.5,9.2,31,3.9l7-3l-16-17.9l0.5-0.6c28.5-31.4,26.1-80-5.3-108.6
	s-80-26.1-108.6,5.3S280.8,460.4,312.3,488.9L312.3,488.9z"/>
<path class="st7" d="M298.3,431.5c0-37,28.3-68,65.2-71.2c-2.1-0.2-4.2-0.3-6.3-0.3c-39.5,0-71.5,32.1-71.5,71.6
	c0,39.5,32,71.5,71.5,71.5c2.1,0,4.2-0.1,6.3-0.3C326.6,499.4,298.3,468.5,298.3,431.5z"/>
<rect x="353.8" y="417.2" class="st6" width="51.1" height="4.7"/>
<rect x="315.8" y="433.6" class="st6" width="89.1" height="4.7"/>
<rect x="315.9" y="450" class="st6" width="89" height="4.7"/>
<circle class="st6" cx="463.4" cy="509.1" r="11"/>
<circle class="st6" cx="479.4" cy="304.1" r="13"/>
</svg>
